<svg xmlns="http://www.w3.org/2000/svg" viewBox="-21 -71 682.667 682"><path d="M126.25 85.75c3.285 0 6.516-1.336 8.836-3.66 2.328-2.324 3.664-5.555 3.664-8.84s-1.336-6.512-3.664-8.836c-2.32-2.324-5.55-3.664-8.836-3.664s-6.516 1.34-8.836 3.664c-2.328 2.324-3.664 5.55-3.664 8.836s1.336 6.516 3.664 8.84a12.588 12.588 0 0 0 8.836 3.66zM173.125 85.75h83.125c6.906 0 12.5-5.594 12.5-12.5 0-6.902-5.594-12.5-12.5-12.5h-83.125c-6.906 0-12.5 5.598-12.5 12.5 0 6.906 5.594 12.5 12.5 12.5zM126.25 165.75h130c6.906 0 12.5-5.594 12.5-12.5 0-6.902-5.594-12.5-12.5-12.5h-130c-6.906 0-12.5 5.598-12.5 12.5 0 6.906 5.594 12.5 12.5 12.5zM126.25 245.75h130c6.906 0 12.5-5.594 12.5-12.5 0-6.902-5.594-12.5-12.5-12.5h-130c-6.906 0-12.5 5.598-12.5 12.5 0 6.906 5.594 12.5 12.5 12.5zM126.25 325.75h130c6.906 0 12.5-5.594 12.5-12.5 0-6.902-5.594-12.5-12.5-12.5h-130c-6.906 0-12.5 5.598-12.5 12.5 0 6.906 5.594 12.5 12.5 12.5zM268.75 393.25c0-6.902-5.594-12.5-12.5-12.5h-130c-6.906 0-12.5 5.598-12.5 12.5 0 6.906 5.594 12.5 12.5 12.5h130c6.906 0 12.5-5.594 12.5-12.5zM371.254 73.25c0 6.906 5.598 12.5 12.5 12.5h130c6.906 0 12.5-5.594 12.5-12.5 0-6.902-5.594-12.5-12.5-12.5h-130c-6.902 0-12.5 5.598-12.5 12.5zM513.754 140.75h-130c-6.902 0-12.5 5.598-12.5 12.5 0 6.906 5.598 12.5 12.5 12.5h130c6.906 0 12.5-5.594 12.5-12.5 0-6.902-5.594-12.5-12.5-12.5zM513.754 220.75h-130c-6.902 0-12.5 5.598-12.5 12.5 0 6.906 5.598 12.5 12.5 12.5h130c6.906 0 12.5-5.594 12.5-12.5 0-6.902-5.594-12.5-12.5-12.5zM513.754 300.75h-130c-6.902 0-12.5 5.598-12.5 12.5 0 6.906 5.598 12.5 12.5 12.5h130c6.906 0 12.5-5.594 12.5-12.5 0-6.902-5.594-12.5-12.5-12.5zM513.754 380.75h-130c-6.902 0-12.5 5.598-12.5 12.5 0 6.906 5.598 12.5 12.5 12.5h130c6.906 0 12.5-5.594 12.5-12.5 0-6.902-5.594-12.5-12.5-12.5zm0 0"/><path d="M627.5 64.5H590v-55C590 2.598 584.406-3 577.5-3H395.043C364.984-3 337.437 11.2 320 34.496 302.562 11.2 275.016-3 244.957-3H62.5C55.594-3 50 2.598 50 9.5v55H12.5C5.594 64.5 0 70.098 0 77v447.5c0 6.906 5.594 12.5 12.5 12.5h431.664c6.906 0 12.5-5.594 12.5-12.5 0-6.902-5.594-12.5-12.5-12.5H331.45a.972.972 0 0 0 .043-.113c.016-.024.031-.047.04-.07 10.73-25.704 35.66-42.317 63.511-42.317H577.5c6.906 0 12.5-5.594 12.5-12.5V89.5h25V512h-68.64c-6.907 0-12.5 5.598-12.5 12.5 0 6.906 5.593 12.5 12.5 12.5h81.14c6.906 0 12.5-5.594 12.5-12.5V77c0-6.902-5.594-12.5-12.5-12.5zM75 22h169.957C272 22 296.289 37.66 307.5 62.102v406.226c-16.836-15.062-38.922-23.828-62.543-23.828H75zM25 89.5h25V457c0 6.906 5.594 12.5 12.5 12.5h182.457c27.852 0 52.781 16.613 63.512 42.316.008.024.023.047.039.07.012.04.027.079.043.114H25zm540 355H395.043c-23.621 0-45.707 8.766-62.543 23.828V62.102C343.71 37.66 368 22 395.043 22H565zm0 0"/><path d="M495.625 512c-3.285 0-6.516 1.34-8.836 3.664-2.328 2.324-3.664 5.55-3.664 8.836s1.336 6.516 3.664 8.84c2.32 2.324 5.55 3.66 8.836 3.66s6.516-1.336 8.836-3.66c2.328-2.324 3.664-5.555 3.664-8.84s-1.336-6.512-3.664-8.836a12.592 12.592 0 0 0-8.836-3.664zm0 0"/></svg>