<svg xmlns="http://www.w3.org/2000/svg" xml:space="preserve" style="enable-background:new 0 0 512 512" viewBox="0 0 512 512"><path d="M290.1 0H119.5a42.7 42.7 0 0 0-42.7 42.7v307.2a42.7 42.7 0 0 0 42.7 42.6H273v-17H119.5a25.6 25.6 0 0 1-25.6-25.6V42.7A25.6 25.6 0 0 1 119.5 17H290a25.6 25.6 0 0 1 25.6 25.6V290h17.1V42.7A42.7 42.7 0 0 0 290.1 0z"/><path d="M414.6 227.3 331 122.7l-13.3 10.6L401.3 238a77 77 0 0 1 16.8 48v209H293.3a80 80 0 0 1-80-80v-31h-17v31c0 53.5 43.5 97 97 97h133.4c4.7 0 8.5-3.8 8.5-8.5V286c0-21.3-7.3-42.1-20.6-58.7z"/><path d="M221.8 201.2c6 .2 11.6 2.7 15.7 7l114.7 122 12.4-11.8L250 196.5a39.2 39.2 0 0 0-55.7-1.6l-.9.8a39.4 39.4 0 0 0-2.3 53.4l73.5 86.8v26.4c0 47.2 29.7 90 73.8 106.5l6-16a97 97 0 0 1-62.7-90.5v-29.5c0-2-.7-4-2-5.5L204 238c-7.6-9-7-22 1.7-30.7 4.3-4.2 10-6.2 16-6.2z"/><path d="M264.5 17.1h17.1v213.3h-17.1zM221.9 281.6H239V384h-17.1zM221.9 8.5H239v187.7h-17.1zM119.5 42.7h17.1v110.9h-17.1zM162.1 42.7h17.1V111h-17.1zM179.2 281.6H128a8.5 8.5 0 0 0-8.5 8.5v51.2c0 4.8 3.8 8.6 8.5 8.6h51.2c4.7 0 8.5-3.8 8.5-8.6v-51.2c0-4.7-3.8-8.5-8.5-8.5zm-8.5 51.2h-34.2v-34.1h34.2v34.1z"/></svg>