<svg xmlns="http://www.w3.org/2000/svg" viewBox="-32 0 512 512"><path d="M437.5 113.5h-60.3A75 75 0 0 0 401.4 67c1.3-10.3.2-20-3-27.9-11.6-28.5-49-44.8-85.3-37l-.9.2c-21.4 6.6-44.4 28.6-68.4 65.4-8.2 12.4-15 24.5-20 33.8-5-9.3-11.8-21.4-20-33.8-24-36.8-47-58.8-68.4-65.4l-.9-.2a85.5 85.5 0 0 0-54 5.8 10 10 0 0 0 8.6 18.1c12.1-5.7 27-7.3 40.7-4.4 29.1 9.4 61.3 60.9 77.8 92h-85.2a57 57 0 0 1-51.7-32.7 10 10 0 1 0-18.2 8.4 75.4 75.4 0 0 0 17.9 24.3H10a10 10 0 0 0-10 10V227a10 10 0 0 0 10 10h11.2v265a10 10 0 0 0 10 10.1h385.2a10 10 0 0 0 10-10V236.9h11.1a10 10 0 0 0 10-10V123.6a10 10 0 0 0-10-10zm-119.8-92c26.5-5.5 54.2 5.7 62 25 2 4.9 2.6 11 1.8 18-3.4 28-27.6 49-56.3 49H240c16.4-31.1 48.6-82.6 77.7-92zM20.1 216.8v-83.2h122.2v83.2zM265.4 492H41.2V237h120.9v184.7a10 10 0 1 0 20 0V237h83.3zm19.8-275H162.4v-83.3h122.8zm121.1 275H285.5V237h120.8v255zm21.2-275H305.2v-83.3h122.3zm0 0"/><path d="M182.2 461.8a10 10 0 1 1-20.2 0 10 10 0 0 1 20.2 0zM68.6 45.8a10 10 0 1 1-20.1 0 10 10 0 0 1 20.1 0zm0 0"/></svg>