<svg xmlns="http://www.w3.org/2000/svg" viewBox="0 0 512 512"><circle cx="181" cy="70" r="10"/><path d="M261 213.6c0 25.3 20.1 42.3 48 65.8 5 4.1 10 8.5 15.5 13.2a10 10 0 0 0 13 0l15.6-13.3C378.4 258 401 240 401 213.6c0-23.9-17.6-42.6-40-42.6a37.3 37.3 0 0 0-30 15 37.3 37.3 0 0 0-30-15c-22.4 0-40 18.7-40 42.6zm60.4-4a10 10 0 0 0 19.2.1c.2-.7 5.6-18.7 20.4-18.7 13 0 20 11.6 20 22.6 0 18-22.4 35-40.8 50.4l-9.2 7.8-9.1-7.7c-25.5-21.5-40.9-34.5-40.9-50.5 0-11 7-22.6 20-22.6 14.8 0 20.2 18 20.4 18.7zM221 442a10 10 0 0 0-10-10h-60a10 10 0 0 0 0 20h60a10 10 0 0 0 10-10z"/><circle cx="181" cy="502" r="10"/><path d="M271 0H91C69 0 51 18 51 40v432c0 22 18 40 40 40h45a10 10 0 0 0 0-20H91c-11 0-20-9-20-20V40c0-11 9-20 20-20h180c11 0 20 9 20 20v62.3A130 130 0 0 0 218.8 291l-17.3 51.7a10 10 0 0 0 12.7 12.7l51.7-17.3c8 4.7 16.4 8.5 25.1 11.3V472c0 11-9 20-20 20h-45a10 10 0 0 0 0 20h45c22 0 40-18 40-40V354.4A130.1 130.1 0 0 0 461 226 130.1 130.1 0 0 0 311 97.5V40c0-22-18-40-40-40zm60 116a110.1 110.1 0 0 1 0 220c-20.9 0-41-6-58.5-17.2a10 10 0 0 0-8.5-1l-37.2 12.4 12.4-37.2c1-2.9.6-6-1-8.5A109.5 109.5 0 0 1 331 116z"/></svg>