<svg xmlns="http://www.w3.org/2000/svg" viewBox="-21 -71 682.66669 682"><path d="m126.25 85.75c3.285156 0 6.515625-1.335938 8.835938-3.660156 2.328124-2.324219 3.664062-5.554688 3.664062-8.839844s-1.335938-6.511719-3.664062-8.835938c-2.320313-2.324218-5.550782-3.664062-8.835938-3.664062s-6.515625 1.339844-8.835938 3.664062c-2.328124 2.324219-3.664062 5.550782-3.664062 8.835938s1.335938 6.515625 3.664062 8.839844c2.320313 2.324218 5.550782 3.660156 8.835938 3.660156zm0 0"></path><path d="m173.125 85.75h83.125c6.90625 0 12.5-5.59375 12.5-12.5 0-6.902344-5.59375-12.5-12.5-12.5h-83.125c-6.90625 0-12.5 5.597656-12.5 12.5 0 6.90625 5.59375 12.5 12.5 12.5zm0 0"></path><path d="m126.25 165.75h130c6.90625 0 12.5-5.59375 12.5-12.5 0-6.902344-5.59375-12.5-12.5-12.5h-130c-6.90625 0-12.5 5.597656-12.5 12.5 0 6.90625 5.59375 12.5 12.5 12.5zm0 0"></path><path d="m126.25 245.75h130c6.90625 0 12.5-5.59375 12.5-12.5 0-6.902344-5.59375-12.5-12.5-12.5h-130c-6.90625 0-12.5 5.597656-12.5 12.5 0 6.90625 5.59375 12.5 12.5 12.5zm0 0"></path><path d="m126.25 325.75h130c6.90625 0 12.5-5.59375 12.5-12.5 0-6.902344-5.59375-12.5-12.5-12.5h-130c-6.90625 0-12.5 5.597656-12.5 12.5 0 6.90625 5.59375 12.5 12.5 12.5zm0 0"></path><path d="m268.75 393.25c0-6.902344-5.59375-12.5-12.5-12.5h-130c-6.90625 0-12.5 5.597656-12.5 12.5 0 6.90625 5.59375 12.5 12.5 12.5h130c6.90625 0 12.5-5.59375 12.5-12.5zm0 0"></path><path d="m371.253906 73.25c0 6.90625 5.597656 12.5 12.5 12.5h130c6.90625 0 12.5-5.59375 12.5-12.5 0-6.902344-5.59375-12.5-12.5-12.5h-130c-6.902344 0-12.5 5.597656-12.5 12.5zm0 0"></path><path d="m513.753906 140.75h-130c-6.902344 0-12.5 5.597656-12.5 12.5 0 6.90625 5.597656 12.5 12.5 12.5h130c6.90625 0 12.5-5.59375 12.5-12.5 0-6.902344-5.59375-12.5-12.5-12.5zm0 0"></path><path d="m513.753906 220.75h-130c-6.902344 0-12.5 5.597656-12.5 12.5 0 6.90625 5.597656 12.5 12.5 12.5h130c6.90625 0 12.5-5.59375 12.5-12.5 0-6.902344-5.59375-12.5-12.5-12.5zm0 0"></path><path d="m513.753906 300.75h-130c-6.902344 0-12.5 5.597656-12.5 12.5 0 6.90625 5.597656 12.5 12.5 12.5h130c6.90625 0 12.5-5.59375 12.5-12.5 0-6.902344-5.59375-12.5-12.5-12.5zm0 0"></path><path d="m513.753906 380.75h-130c-6.902344 0-12.5 5.597656-12.5 12.5 0 6.90625 5.597656 12.5 12.5 12.5h130c6.90625 0 12.5-5.59375 12.5-12.5 0-6.902344-5.59375-12.5-12.5-12.5zm0 0"></path><path d="m627.5 64.5h-37.5v-55c0-6.902344-5.59375-12.5-12.5-12.5h-182.457031c-30.058594 0-57.605469 14.199219-75.042969 37.496094-17.4375-23.296875-44.984375-37.496094-75.042969-37.496094h-182.457031c-6.90625 0-12.5 5.597656-12.5 12.5v55h-37.5c-6.90625 0-12.5 5.597656-12.5 12.5v447.5c0 6.90625 5.59375 12.5 12.5 12.5h431.664062c6.90625 0 12.5-5.59375 12.5-12.5 0-6.902344-5.59375-12.5-12.5-12.5h-112.714843c.015625-.035156.03125-.074219.042969-.113281.015624-.023438.03125-.046875.039062-.070313 10.730469-25.703125 35.660156-42.316406 63.511719-42.316406h182.457031c6.90625 0 12.5-5.59375 12.5-12.5v-367.5h25v422.5h-68.640625c-6.90625 0-12.5 5.597656-12.5 12.5 0 6.90625 5.59375 12.5 12.5 12.5h81.140625c6.90625 0 12.5-5.59375 12.5-12.5v-447.5c0-6.902344-5.59375-12.5-12.5-12.5zm-552.5-42.5h169.957031c27.042969 0 51.332031 15.660156 62.542969 40.101562v406.226563c-16.835938-15.0625-38.921875-23.828125-62.542969-23.828125h-169.957031zm-50 67.5h25v367.5c0 6.90625 5.59375 12.5 12.5 12.5h182.457031c27.851563 0 52.78125 16.613281 63.511719 42.316406.007812.023438.023438.046875.039062.070313.011719.039062.027344.078125.042969.113281h-283.550781zm540 355h-169.957031c-23.621094 0-45.707031 8.765625-62.542969 23.828125v-406.226563c11.210938-24.441406 35.5-40.101562 62.542969-40.101562h169.957031zm0 0"></path><path d="m495.625 512c-3.285156 0-6.515625 1.339844-8.835938 3.664062-2.328124 2.324219-3.664062 5.550782-3.664062 8.835938s1.335938 6.515625 3.664062 8.839844c2.320313 2.324218 5.550782 3.660156 8.835938 3.660156s6.515625-1.335938 8.835938-3.660156c2.328124-2.324219 3.664062-5.554688 3.664062-8.839844s-1.335938-6.511719-3.664062-8.835938c-2.320313-2.324218-5.550782-3.664062-8.835938-3.664062zm0 0"></path></svg>